<?xml version="1.0" encoding="UTF-8"?>
<svg version="1.1" xmlns="http://www.w3.org/2000/svg" width="600" height="150">
<path d="M0 0 C1.09768707 -0.00307663 2.19537415 -0.00615326 3.32632446 -0.00932312 C5.10297989 0.00145515 5.10297989 0.00145515 6.91552734 0.01245117 C8.73677628 0.0131385 8.73677628 0.0131385 10.59481812 0.01383972 C13.16201759 0.01686229 15.72921522 0.02474868 18.29638672 0.03710938 C22.24241575 0.05537803 26.18821043 0.057619 30.13427734 0.05737305 C32.62386272 0.06228764 35.1134465 0.0681157 37.60302734 0.07495117 C38.79151276 0.076064 39.97999817 0.07717682 41.20449829 0.07832336 C42.29588104 0.08470322 43.38726379 0.09108307 44.51171875 0.09765625 C45.47751862 0.10146805 46.44331848 0.10527985 47.43838501 0.10920715 C49.62646484 0.24291992 49.62646484 0.24291992 50.62646484 1.24291992 C50.89961299 6.97903103 50.89961299 6.97903103 50.62646484 9.24291992 C48.62646484 11.24291992 48.62646484 11.24291992 45.00146484 11.36791992 C43.88771484 11.32666992 42.77396484 11.28541992 41.62646484 11.24291992 C41.64217529 12.17152832 41.65788574 13.10013672 41.67407227 14.05688477 C41.72515337 17.49720821 41.76279091 20.93712968 41.79125977 24.37768555 C41.80636085 25.86765901 41.82684343 27.35758793 41.8527832 28.84741211 C41.88911069 30.98717223 41.90617705 33.12634559 41.91943359 35.26635742 C41.93514404 36.55461426 41.95085449 37.84287109 41.96704102 39.17016602 C41.79845581 40.6911792 41.79845581 40.6911792 41.62646484 42.24291992 C38.13309667 44.57183204 36.7663862 44.47843135 32.64599609 44.43823242 C30.90092773 44.42856445 30.90092773 44.42856445 29.12060547 44.41870117 C27.29819336 44.39356445 27.29819336 44.39356445 25.43896484 44.36791992 C24.21242187 44.35889648 22.98587891 44.34987305 21.72216797 44.34057617 C18.69007189 44.31698009 15.65836547 44.28405833 12.62646484 44.24291992 C12.62646484 46.88291992 12.62646484 49.52291992 12.62646484 52.24291992 C13.52478027 52.22720947 14.4230957 52.21149902 15.34863281 52.1953125 C18.67714177 52.14422737 22.00523512 52.10659207 25.33398438 52.078125 C26.77545742 52.06302509 28.21688443 52.04254334 29.65820312 52.01660156 C31.72846828 51.98026862 33.79812692 51.96320664 35.86865234 51.94995117 C37.11501465 51.93424072 38.36137695 51.91853027 39.64550781 51.90234375 C40.62922363 52.01473389 41.61293945 52.12712402 42.62646484 52.24291992 C45.02373501 55.83882517 44.88392289 57.50168564 44.89208984 61.77416992 C44.89595703 63.70196289 44.89595703 63.70196289 44.89990234 65.66870117 C44.89361816 66.67151123 44.89361816 66.67151123 44.88720703 67.69458008 C44.87650252 69.7357354 44.88711147 71.77601067 44.89990234 73.81713867 C44.89732422 75.10233398 44.89474609 76.3875293 44.89208984 77.71166992 C44.88983398 78.89180664 44.88757813 80.07194336 44.88525391 81.2878418 C44.62646484 84.24291992 44.62646484 84.24291992 42.62646484 87.24291992 C40.53918457 87.61714172 40.53918457 87.61714172 37.93310547 87.61523438 C36.95869507 87.62146317 35.98428467 87.62769196 34.98034668 87.6341095 C33.92512817 87.62489975 32.86990967 87.61569 31.78271484 87.60620117 C30.70268188 87.60669968 29.62264893 87.60719818 28.5098877 87.60771179 C26.22336998 87.60536829 23.93684984 87.59562361 21.65039062 87.57910156 C18.14087981 87.55551679 14.63212844 87.5585377 11.12255859 87.56518555 C8.90510613 87.55960888 6.68765687 87.55249907 4.47021484 87.54370117 C3.41499634 87.54461258 2.35977783 87.54552399 1.27258301 87.54646301 C-0.18903259 87.53216499 -0.18903259 87.53216499 -1.68017578 87.51757812 C-2.54018188 87.51297073 -3.40018799 87.50836334 -4.28625488 87.50361633 C-6.37353516 87.24291992 -6.37353516 87.24291992 -8.37353516 85.24291992 C-8.63232422 82.2019043 -8.63232422 82.2019043 -8.63916016 78.33666992 C-8.64107361 77.65616577 -8.64298706 76.97566162 -8.6449585 76.27453613 C-8.64631979 74.83544546 -8.64262721 73.39634249 -8.63427734 71.95727539 C-8.62357644 69.75142905 -8.63417387 67.54639711 -8.64697266 65.34057617 C-8.64565105 63.94343895 -8.64308863 62.54630224 -8.63916016 61.14916992 C-8.6369043 59.87364258 -8.63464844 58.59811523 -8.63232422 57.28393555 C-8.37353516 54.24291992 -8.37353516 54.24291992 -6.37353516 52.24291992 C-2.74853516 52.11791992 -2.74853516 52.11791992 0.62646484 52.24291992 C0.62646484 49.60291992 0.62646484 46.96291992 0.62646484 44.24291992 C-0.30166016 44.28416992 -1.22978516 44.32541992 -2.18603516 44.36791992 C-5.37353516 44.24291992 -5.37353516 44.24291992 -8.37353516 42.24291992 C-8.67739281 39.21580976 -8.79340313 36.39704518 -8.77197266 33.36791992 C-8.77484283 32.48765137 -8.77771301 31.60738281 -8.78067017 30.70043945 C-8.78271343 28.83763995 -8.77716525 26.97481912 -8.76464844 25.11206055 C-8.74859824 22.25415251 -8.76448798 19.39765876 -8.78369141 16.53979492 C-8.78170902 14.73250012 -8.77786544 12.9252062 -8.77197266 11.11791992 C-8.77804535 10.25956543 -8.78411804 9.40121094 -8.79037476 8.5168457 C-8.76171875 6.11010742 -8.76171875 6.11010742 -8.37353516 2.24291992 C-5.01503651 0.00392083 -3.923215 -0.0057791 0 0 Z M3.62646484 11.24291992 C3.60583984 14.68729492 3.58521484 18.13166992 3.56396484 21.68041992 C3.55486084 22.76766357 3.54575684 23.85490723 3.53637695 24.97509766 C3.53387939 25.82531494 3.53138184 26.67553223 3.52880859 27.55151367 C3.52357178 28.42606201 3.51833496 29.30061035 3.51293945 30.20166016 C3.39861676 32.23732198 3.39861676 32.23732198 4.62646484 33.24291992 C6.48016096 33.33029637 8.33714025 33.34990145 10.19287109 33.34057617 C11.31757812 33.33735352 12.44228516 33.33413086 13.60107422 33.33081055 C15.37708008 33.31824219 15.37708008 33.31824219 17.18896484 33.30541992 C18.37683594 33.3009082 19.56470703 33.29639648 20.78857422 33.29174805 C23.73455896 33.27991678 26.680518 33.26198069 29.62646484 33.24291992 C29.62646484 25.98291992 29.62646484 18.72291992 29.62646484 11.24291992 C21.04646484 11.24291992 12.46646484 11.24291992 3.62646484 11.24291992 Z M10.62646484 62.24291992 C10.62646484 67.19291992 10.62646484 72.14291992 10.62646484 77.24291992 C17.88646484 77.24291992 25.14646484 77.24291992 32.62646484 77.24291992 C32.62646484 72.29291992 32.62646484 67.34291992 32.62646484 62.24291992 C25.36646484 62.24291992 18.10646484 62.24291992 10.62646484 62.24291992 Z " fill="#E96D0D" transform="translate(54.37353515625,44.757080078125)"/>
<path d="M0 0 C1.44620519 0.00079061 2.8925622 0.02898874 4.33789062 0.0793457 C5.48614319 0.08995781 5.48614319 0.08995781 6.65759277 0.1007843 C9.10410445 0.12876127 11.54832314 0.19144631 13.99414062 0.25512695 C15.64124266 0.28021055 17.28838095 0.30302362 18.93554688 0.32348633 C21.95359359 0.36434401 24.9707816 0.41778817 27.98828125 0.48828125 C31.24069204 0.56189083 34.47217908 0.56805848 37.72460938 0.50415039 C41.22568277 0.43589156 44.72605938 0.38604287 48.22753906 0.34790039 C49.73871937 0.3277166 51.24982097 0.300371 52.76074219 0.26586914 C54.94290211 0.2173767 57.12404067 0.19467661 59.30664062 0.17700195 C60.61246094 0.15605469 61.91828125 0.13510742 63.26367188 0.11352539 C66.49414062 0.56762695 66.49414062 0.56762695 68.17376709 2.25979614 C69.76790462 5.04612865 69.86293106 6.74905482 69.85058594 9.94702148 C69.85358704 11.02138458 69.85658813 12.09574768 69.85968018 13.20266724 C69.84115997 14.93406448 69.84115997 14.93406448 69.82226562 16.70043945 C69.82039246 17.88862274 69.81851929 19.07680603 69.81658936 20.30099487 C69.80986923 22.810962 69.79595561 25.32091867 69.77539062 27.83081055 C69.74420568 31.68458728 69.73441669 35.53795524 69.72851562 39.3918457 C69.71934696 41.82804864 69.70897162 44.26424739 69.69726562 46.70043945 C69.69301575 47.85875275 69.68876587 49.01706604 69.68438721 50.21047974 C69.67477966 51.27853851 69.66517212 52.34659729 69.65527344 53.44702148 C69.64844543 54.38981964 69.64161743 55.3326178 69.63458252 56.3039856 C69.49414062 58.56762695 69.49414062 58.56762695 68.49414062 60.56762695 C64.86414063 60.56762695 61.23414063 60.56762695 57.49414062 60.56762695 C56.2962289 58.17180349 56.37346623 56.69985158 56.38061523 54.02612305 C56.38069077 53.08529877 56.3807663 52.14447449 56.38084412 51.17514038 C56.38858604 49.6485228 56.38858604 49.6485228 56.39648438 48.09106445 C56.39789932 47.05068024 56.39931427 46.01029602 56.40077209 44.93838501 C56.40638196 41.60643674 56.41893615 38.274555 56.43164062 34.94262695 C56.43665435 32.68741959 56.44121748 30.43221117 56.4453125 28.17700195 C56.4563546 22.64051788 56.47362588 17.10408371 56.49414062 11.56762695 C50.55414063 11.56762695 44.61414063 11.56762695 38.49414062 11.56762695 C38.49414062 27.73762695 38.49414062 43.90762695 38.49414062 60.56762695 C34.86414063 60.56762695 31.23414063 60.56762695 27.49414062 60.56762695 C26.2962289 58.17180349 26.37346623 56.69985158 26.38061523 54.02612305 C26.38069077 53.08529877 26.3807663 52.14447449 26.38084412 51.17514038 C26.38858604 49.6485228 26.38858604 49.6485228 26.39648438 48.09106445 C26.39789932 47.05068024 26.39931427 46.01029602 26.40077209 44.93838501 C26.40638196 41.60643674 26.41893615 38.274555 26.43164062 34.94262695 C26.43665435 32.68741959 26.44121748 30.43221117 26.4453125 28.17700195 C26.4563546 22.64051788 26.47362588 17.10408371 26.49414062 11.56762695 C19.89414063 11.56762695 13.29414063 11.56762695 6.49414062 11.56762695 C6.55601562 13.89825195 6.61789063 16.22887695 6.68164062 18.63012695 C6.71644531 19.94110352 6.75125 21.25208008 6.78710938 22.6027832 C7.10588397 25.81635487 7.90363284 27.29148242 10.02539062 29.69262695 C14.10060275 34.8416089 13.0191811 41.26951642 12.80664062 47.50512695 C12.78408203 48.76131836 12.76152344 50.01750977 12.73828125 51.31176758 C12.67961581 54.39756952 12.58994411 57.48275468 12.49414062 60.56762695 C6.55414063 60.56762695 0.61414063 60.56762695 -5.50585938 60.56762695 C-6.75542733 58.06849104 -6.64628241 56.3512252 -6.66699219 53.5546875 C-6.67659973 52.50987717 -6.68620728 51.46506683 -6.69610596 50.38859558 C-6.70035583 49.25529312 -6.70460571 48.12199066 -6.70898438 46.9543457 C-6.71468445 45.79264359 -6.72038452 44.63094147 -6.72625732 43.43403625 C-6.73571733 40.97182123 -6.74224526 38.50959348 -6.74609375 36.04736328 C-6.75579247 32.28110623 -6.78680446 28.5153963 -6.81835938 24.74926758 C-6.82488992 22.35929687 -6.83014019 19.96932224 -6.83398438 17.5793457 C-6.84633118 16.45211594 -6.85867798 15.32488617 -6.87139893 14.16349792 C-6.86839783 13.10923111 -6.86539673 12.05496429 -6.86230469 10.96875 C-6.86595032 10.04434616 -6.86959595 9.11994232 -6.87335205 8.16752625 C-6.18679208 3.31032252 -4.93553376 0.79910279 0 0 Z " fill="#000000" transform="translate(205.505859375,44.432373046875)"/>
<path d="M0 0 C2.34765625 -0.328125 2.34765625 -0.328125 5.0625 -0.25 C5.96097656 -0.23453125 6.85945313 -0.2190625 7.78515625 -0.203125 C10 0 10 0 11 1 C11.08758003 2.99964982 11.10696576 5.0023611 11.09765625 7.00390625 C11.09443359 8.21884766 11.09121094 9.43378906 11.08789062 10.68554688 C11.07951172 11.96494141 11.07113281 13.24433594 11.0625 14.5625 C11.05798828 15.84576172 11.05347656 17.12902344 11.04882812 18.45117188 C11.03699545 21.63416022 11.02051068 24.81705762 11 28 C11.66 27.67 12.32 27.34 13 27 C15.88165555 26.86432883 18.73795912 26.78727546 21.62109375 26.76171875 C22.47679459 26.753647 23.33249542 26.74557526 24.21412659 26.73725891 C26.02562432 26.72341997 27.83714811 26.71269696 29.64868164 26.70483398 C32.42318765 26.68758896 35.1965119 26.64369889 37.97070312 26.59960938 C39.72915789 26.5894853 41.48762279 26.5809683 43.24609375 26.57421875 C44.07741318 26.55671066 44.9087326 26.53920258 45.76524353 26.52116394 C51.54154062 26.54299361 51.54154062 26.54299361 53.71879578 28.71334839 C55.21849315 31.38995947 55.3799189 33.00213955 55.38818359 36.05639648 C55.39764008 37.06101425 55.40709656 38.06563202 55.4168396 39.10069275 C55.41076691 40.17992508 55.40469421 41.25915741 55.3984375 42.37109375 C55.40130768 43.48557388 55.40417786 44.60005402 55.40713501 45.74830627 C55.40917582 48.10442615 55.40364481 50.46056296 55.39111328 52.81665039 C55.37507578 56.42047107 55.39095444 60.0231676 55.41015625 63.62695312 C55.40817353 65.91666914 55.40432925 68.20638446 55.3984375 70.49609375 C55.40451019 71.57330185 55.41058289 72.65050995 55.4168396 73.76036072 C55.37940255 77.74999822 55.17870307 81.31458588 54.17041016 85.18188477 C50.33457582 88.39509717 45.69629933 87.66770857 40.875 87.59375 C39.77655762 87.59379028 38.67811523 87.59383057 37.54638672 87.59387207 C35.22292361 87.5885082 32.89946148 87.57088882 30.57617188 87.54199219 C27.01376071 87.50016158 23.45324011 87.50091966 19.890625 87.5078125 C17.63540349 87.49731974 15.38019175 87.48438119 13.125 87.46875 C12.05620605 87.46854858 10.98741211 87.46834717 9.88623047 87.46813965 C8.89510254 87.45222778 7.90397461 87.43631592 6.8828125 87.41992188 C6.01027832 87.41150269 5.13774414 87.4030835 4.23876953 87.39440918 C1.51258002 86.9141301 0.65399204 86.18535705 -1 84 C-2.18266172 80.45201484 -2.1476074 77.2387226 -2.14526367 73.546875 C-2.14862228 72.79047729 -2.1519809 72.03407959 -2.15544128 71.25476074 C-2.16494441 68.75315715 -2.16689392 66.25162052 -2.16796875 63.75 C-2.17118123 62.01269503 -2.1745453 60.27539033 -2.17805481 58.53808594 C-2.18404409 54.89647799 -2.18589486 51.25489378 -2.18530273 47.61328125 C-2.185201 42.94238131 -2.19886587 38.271633 -2.21607494 33.60076904 C-2.22718044 30.01317645 -2.22922241 26.42562072 -2.22869301 22.8380127 C-2.22987483 21.11559526 -2.23430788 19.39317692 -2.24202538 17.67077637 C-2.25179822 15.26478363 -2.2489583 12.85912283 -2.24291992 10.453125 C-2.24853943 9.73926636 -2.25415894 9.02540771 -2.25994873 8.28991699 C-2.23654107 4.62854361 -2.09066541 3.13599811 0 0 Z M18 38 C18 50.54 18 63.08 18 76 C25.92 76 33.84 76 42 76 C42 63.46 42 50.92 42 38 C34.08 38 26.16 38 18 38 Z " fill="#000000" transform="translate(501,18)"/>
<path d="M0 0 C7.2265322 -0.05058332 14.45301899 -0.08568412 21.6796875 -0.10986328 C24.13966579 -0.11993983 26.59963206 -0.13360131 29.05957031 -0.15087891 C32.58922285 -0.17505461 36.11871747 -0.1864664 39.6484375 -0.1953125 C40.75367767 -0.20563507 41.85891785 -0.21595764 42.99765015 -0.22659302 C44.01855743 -0.22674408 45.03946472 -0.22689514 46.09130859 -0.22705078 C46.99287689 -0.231492 47.89444519 -0.23593323 48.82333374 -0.24050903 C51 0 51 0 53 2 C53.2784729 3.98684692 53.2784729 3.98684692 53.31884766 6.44970703 C53.33871735 7.37051056 53.35858704 8.29131409 53.37905884 9.24002075 C53.39061005 10.23589203 53.40216125 11.23176331 53.4140625 12.2578125 C53.43342865 13.27600067 53.4527948 14.29418884 53.4727478 15.3432312 C53.53265355 18.60373489 53.57897299 21.86427367 53.625 25.125 C53.66316965 27.33204687 53.70222077 29.53907869 53.7421875 31.74609375 C53.83836394 37.16392911 53.92337899 42.58185473 54 48 C55.98 48.66 57.96 49.32 60 50 C60.02689216 51.47906892 60.04634621 52.95827483 60.0625 54.4375 C60.07410156 55.26121094 60.08570313 56.08492187 60.09765625 56.93359375 C60 59 60 59 59 60 C57.23678603 60.11985777 55.46879746 60.17017516 53.70166016 60.19287109 C52.5702359 60.20893402 51.43881165 60.22499695 50.27310181 60.24154663 C45.09419442 60.28577751 39.91537741 60.32750395 34.73632812 60.35009766 C31.32051365 60.36675075 27.90566316 60.41152751 24.49021339 60.4624691 C21.23577318 60.50418641 17.98122679 60.51127525 14.7265625 60.5234375 C13.49837799 60.54610687 12.27019348 60.56877625 11.00479126 60.59213257 C9.86706268 60.58928253 8.72933411 60.5864325 7.55712891 60.58349609 C6.05274765 60.59562637 6.05274765 60.59562637 4.51797485 60.60800171 C2 60 2 60 0.17793274 57.67863464 C-2.09751743 52.50423083 -1.47862848 46.73629503 -1.44604492 41.1706543 C-1.43751076 38.94031186 -1.46636037 36.7125132 -1.49804688 34.48242188 C-1.49965857 33.0598966 -1.49908196 31.6373668 -1.49609375 30.21484375 C-1.49794678 28.92698975 -1.4997998 27.63913574 -1.50170898 26.31225586 C-1 23 -1 23 0.47338867 20.57348633 C4.24051402 18.22745069 7.57053627 18.5014575 11.921875 18.609375 C12.78186096 18.61503479 13.64184692 18.62069458 14.52789307 18.62652588 C17.26916649 18.64888049 20.00912304 18.69907398 22.75 18.75 C24.61065818 18.77006624 26.47133689 18.78831679 28.33203125 18.8046875 C32.88852666 18.84874216 37.44404022 18.91776246 42 19 C42 16.36 42 13.72 42 11 C40.15269287 11.01571045 40.15269287 11.01571045 38.26806641 11.03173828 C33.70966485 11.06787089 29.15127602 11.09087585 24.59277344 11.10986328 C22.61781691 11.11993627 20.64287534 11.13359521 18.66796875 11.15087891 C15.83329582 11.17507039 12.99881962 11.18646991 10.1640625 11.1953125 C9.27756012 11.20563507 8.39105774 11.21595764 7.47769165 11.22659302 C5.31714048 11.2269907 3.15706282 11.12272534 1 11 C-1 9 -1 9 -1.1875 5.5 C-1 2 -1 2 0 0 Z M18 30 C17.979375 32.949375 17.95875 35.89875 17.9375 38.9375 C17.928396 39.86812256 17.91929199 40.79874512 17.90991211 41.75756836 C17.90741455 42.48596924 17.90491699 43.21437012 17.90234375 43.96484375 C17.89710693 44.7137085 17.89187012 45.46257324 17.88647461 46.23413086 C17.80658248 48.02667739 17.80658248 48.02667739 19 49 C20.70772358 49.08713831 22.41898649 49.10700007 24.12890625 49.09765625 C25.16337891 49.09443359 26.19785156 49.09121094 27.26367188 49.08789062 C28.35228516 49.07951172 29.44089844 49.07113281 30.5625 49.0625 C31.65498047 49.05798828 32.74746094 49.05347656 33.87304688 49.04882812 C36.58205432 49.0369984 39.2910338 49.01906231 42 49 C42 42.73 42 36.46 42 30 C34.08 30 26.16 30 18 30 Z " fill="#000000" transform="translate(436,45)"/>
<path d="M0 0 C1.05456894 -0.00637985 2.10913788 -0.0127597 3.19566345 -0.01933289 C4.34353836 -0.02044571 5.49141327 -0.02155853 6.67407227 -0.02270508 C7.84430435 -0.02603348 9.01453644 -0.02936188 10.2202301 -0.03279114 C12.70101527 -0.03786542 15.1818073 -0.04019931 17.66259766 -0.04003906 C21.47057271 -0.0422249 25.27825794 -0.06037384 29.08618164 -0.0793457 C31.49047752 -0.08227957 33.89477478 -0.08426441 36.29907227 -0.08520508 C37.44492294 -0.09239059 38.59077362 -0.09957611 39.77134705 -0.10697937 C41.3579287 -0.10236443 41.3579287 -0.10236443 42.9765625 -0.09765625 C43.91064438 -0.09908127 44.84472626 -0.10050629 45.80711365 -0.10197449 C48.05297852 0.14526367 48.05297852 0.14526367 50.05297852 2.14526367 C50.78279965 5.25830602 50.63204568 8.01357393 50.05297852 11.14526367 C48.85571289 12.98242188 48.85571289 12.98242188 47.20922852 14.75854492 C46.57380127 15.44658203 45.93837402 16.13461914 45.28369141 16.84350586 C40.90983799 21.35666007 36.4654823 25.79542038 31.99047852 30.20776367 C30.05903788 32.11225845 28.13119183 34.02029345 26.20532227 35.93041992 C25.3596167 36.76452393 24.51391113 37.59862793 23.64257812 38.45800781 C20.64793484 41.56558193 17.86157161 44.86857173 15.05297852 48.14526367 C22.64297852 48.47526367 30.23297852 48.80526367 38.05297852 49.14526367 C38.38297852 46.83526367 38.71297852 44.52526367 39.05297852 42.14526367 C40.69872417 42.11838216 42.34459265 42.09892244 43.99047852 42.08276367 C44.90700195 42.07116211 45.82352539 42.05956055 46.76782227 42.04760742 C49.05297852 42.14526367 49.05297852 42.14526367 50.05297852 43.14526367 C50.15279065 45.82257747 50.19177727 48.46830542 50.17797852 51.14526367 C50.1837793 52.27061523 50.1837793 52.27061523 50.18969727 53.41870117 C50.17958905 59.01865314 50.17958905 59.01865314 49.05297852 60.14526367 C47.33432443 60.23885557 45.61182108 60.26270978 43.890625 60.25878906 C42.78955917 60.25871353 41.68849335 60.258638 40.55406189 60.25856018 C39.35616531 60.2533989 38.15826874 60.24823761 36.92407227 60.24291992 C35.70470474 60.24150497 34.48533722 60.24009003 33.22901917 60.2386322 C29.31614782 60.23301334 25.40333271 60.22045763 21.49047852 60.20776367 C18.84529705 60.2027511 16.20011469 60.19818778 13.55493164 60.1940918 C7.05426126 60.18303778 0.5536239 60.16628131 -5.94702148 60.14526367 C-6.02653915 57.57043272 -6.0846821 54.99807432 -6.13061523 52.42260742 C-6.15522827 51.69666382 -6.17984131 50.97072021 -6.2052002 50.22277832 C-6.26444909 45.79423874 -5.95207578 43.08335425 -3.00952148 39.70776367 C-1.67344281 38.49994855 -0.31808872 37.31320984 1.05297852 36.14526367 C1.72844727 35.38729492 2.40391602 34.62932617 3.09985352 33.84838867 C7.047488 29.43971659 10.33180582 26.77561922 15.92797852 24.77026367 C23.5972274 22.00026504 27.61737889 17.08151063 33.05297852 11.14526367 C19.19297852 10.65026367 19.19297852 10.65026367 5.05297852 10.14526367 C5.05297852 12.78526367 5.05297852 15.42526367 5.05297852 18.14526367 C4.05297852 19.14526367 4.05297852 19.14526367 2.02172852 19.27807617 C1.20704102 19.27549805 0.39235352 19.27291992 -0.44702148 19.27026367 C-1.26170898 19.2728418 -2.07639648 19.27541992 -2.91577148 19.27807617 C-4.94702148 19.14526367 -4.94702148 19.14526367 -5.94702148 18.14526367 C-6.04689123 15.30191319 -6.0858003 12.48829204 -6.07202148 9.64526367 C-6.07588867 8.84733398 -6.07975586 8.0494043 -6.08374023 7.22729492 C-6.07151189 0.02479773 -6.07151189 0.02479773 0 0 Z " fill="#000000" transform="translate(142.947021484375,44.854736328125)"/>
<path d="M0 0 C1.0176796 -0.00315216 2.03535919 -0.00630432 3.08387756 -0.009552 C4.18598068 -0.00752777 5.2880838 -0.00550354 6.42358398 -0.00341797 C7.55038071 -0.00437469 8.67717743 -0.00533142 9.83811951 -0.00631714 C12.22297217 -0.0069985 14.60782667 -0.00514728 16.99267578 -0.00097656 C20.65783825 0.00437724 24.32287845 -0.00092563 27.98803711 -0.00732422 C30.29988634 -0.00666353 32.61173549 -0.00538255 34.92358398 -0.00341797 C36.02771133 -0.0054422 37.13183868 -0.00746643 38.26942444 -0.009552 C39.79121559 -0.00482376 39.79121559 -0.00482376 41.34375 0 C42.2415065 0.00079559 43.139263 0.00159119 44.06422424 0.00241089 C46.10717773 0.12939453 46.10717773 0.12939453 47.10717773 1.12939453 C47.20617335 2.93448826 47.23516924 4.74346381 47.23657227 6.55126953 C47.23972443 7.70916992 47.24287659 8.86707031 47.24612427 10.06005859 C47.24410004 11.32043945 47.24207581 12.58082031 47.23999023 13.87939453 C47.24094696 15.16297852 47.24190369 16.4465625 47.2428894 17.76904297 C47.24436604 20.48943277 47.24221292 23.20978978 47.23754883 25.93017578 C47.23185154 29.42424122 47.23513073 32.91822986 47.24112129 36.41229248 C47.24559528 39.73466606 47.24246658 43.05701877 47.23999023 46.37939453 C47.24201447 47.63977539 47.2440387 48.90015625 47.24612427 50.19873047 C47.24139603 51.93558105 47.24139603 51.93558105 47.23657227 53.70751953 C47.23577667 54.73264648 47.23498108 55.75777344 47.23416138 56.81396484 C47.10717773 59.12939453 47.10717773 59.12939453 46.10717773 60.12939453 C44.4859035 60.22801051 42.86035406 60.2573822 41.23608398 60.25878906 C39.67942017 60.2635173 39.67942017 60.2635173 38.09130859 60.26834106 C36.39760132 60.26530472 36.39760132 60.26530472 34.66967773 60.26220703 C32.94406616 60.26364212 32.94406616 60.26364212 31.18359375 60.2651062 C28.74568629 60.26578822 26.30777704 60.26393243 23.86987305 60.25976562 C20.12341256 60.25441771 16.37707196 60.25970992 12.63061523 60.26611328 C10.2686358 60.2654525 7.90665644 60.26417135 5.54467773 60.26220703 C4.41553955 60.26423126 3.28640137 60.26625549 2.12304688 60.26834106 C0.56638306 60.26361282 0.56638306 60.26361282 -1.02172852 60.25878906 C-1.94026611 60.25799347 -2.85880371 60.25719788 -3.80517578 60.25637817 C-5.89282227 60.12939453 -5.89282227 60.12939453 -6.89282227 59.12939453 C-6.9865828 57.31884428 -7.01026336 55.50462252 -7.00634766 53.69165039 C-7.00627213 52.53052231 -7.00619659 51.36939423 -7.00611877 50.17308044 C-7.00095749 48.90956253 -6.9957962 47.64604462 -6.99047852 46.34423828 C-6.98906357 45.05828262 -6.98764862 43.77232697 -6.9861908 42.44740295 C-6.98236645 39.02296011 -6.97253688 35.59855944 -6.96148682 32.1741333 C-6.95127091 28.68201264 -6.94669279 25.18988519 -6.94165039 21.69775391 C-6.93091453 14.84161675 -6.91383911 7.98550766 -6.89282227 1.12939453 C-4.41634371 -0.10884474 -2.76968485 0.00245233 0 0 Z M4.10717773 11.12939453 C4.08426988 16.52292042 4.06434248 21.91627874 4.05224609 27.30981445 C4.04720542 29.14608328 4.04037297 30.98234807 4.03173828 32.81860352 C4.01966101 35.45215854 4.01394692 38.0856607 4.00952148 40.71923828 C4.0043602 41.54528061 3.99919891 42.37132294 3.99388123 43.22239685 C3.99368569 45.19175821 4.04513622 47.16101067 4.10717773 49.12939453 C5.79234728 50.81456407 7.89485561 50.25947472 10.20092773 50.26220703 C11.23088867 50.26349609 12.26084961 50.26478516 13.32202148 50.26611328 C14.40612305 50.26224609 15.49022461 50.25837891 16.60717773 50.25439453 C18.23333008 50.26019531 18.23333008 50.26019531 19.89233398 50.26611328 C20.92229492 50.26482422 21.95225586 50.26353516 23.01342773 50.26220703 C23.96540039 50.2610791 24.91737305 50.25995117 25.89819336 50.25878906 C28.08169911 50.3763891 28.08169911 50.3763891 29.10717773 49.12939453 C29.16431021 47.15303396 29.21711083 45.17643664 29.24609375 43.19946289 C29.40488977 35.20779361 29.98260258 29.45380975 34.82983398 22.78173828 C36.75802085 19.2685993 36.75802085 19.2685993 36.10717773 11.12939453 C25.54717773 11.12939453 14.98717773 11.12939453 4.10717773 11.12939453 Z " fill="#000000" transform="translate(290.892822265625,44.87060546875)"/>
<path d="M0 0 C0.9075 0.00257812 1.815 0.00515625 2.75 0.0078125 C4.11125 0.00394531 4.11125 0.00394531 5.5 0 C7.75 0.1328125 7.75 0.1328125 8.75 1.1328125 C8.84110305 2.53756654 8.86463634 3.94679437 8.86010742 5.35449219 C8.86068649 6.25343201 8.86126556 7.15237183 8.86186218 8.07855225 C8.85869743 9.5517392 8.85869743 9.5517392 8.85546875 11.0546875 C8.86894348 13.13412484 8.88396997 15.21355259 8.90039062 17.29296875 C8.92307099 20.57113453 8.93763274 23.84823261 8.92504883 27.12646484 C8.79830464 43.35685209 8.79830464 43.35685209 14.41186523 58.29248047 C16.78295442 63.3253671 16.43068429 68.36407903 16.1875 73.8203125 C16.16880859 74.88958984 16.15011719 75.95886719 16.13085938 77.06054688 C15.95113164 84.73054921 15.95113164 84.73054921 14.75 87.1328125 C11.93743719 87.15965562 9.12512759 87.17957438 6.3125 87.1953125 C5.51005859 87.20369141 4.70761719 87.21207031 3.88085938 87.22070312 C1.83704779 87.2293268 -0.20683902 87.185094 -2.25 87.1328125 C-4.02470247 85.35811003 -3.37620861 82.98891297 -3.38552856 80.62528992 C-3.38350433 79.83564346 -3.3814801 79.04599701 -3.37939453 78.23242188 C-3.38114685 77.40482864 -3.38289917 76.57723541 -3.38470459 75.7245636 C-3.38912393 72.97520888 -3.38618483 70.22591793 -3.3828125 67.4765625 C-3.38348552 65.57466621 -3.38445552 63.67277001 -3.38571167 61.77087402 C-3.38718875 57.77936995 -3.38503375 53.78788821 -3.38037109 49.79638672 C-3.3746738 44.66790743 -3.37795275 39.53948048 -3.38394356 34.41100311 C-3.38754889 30.48207196 -3.38641072 26.55315332 -3.38381577 22.6242218 C-3.38314642 20.73269138 -3.38397519 18.84115985 -3.38629532 16.94963074 C-3.38882138 14.31079073 -3.38498191 11.67203669 -3.37939453 9.03320312 C-3.38141876 8.24355667 -3.38344299 7.45391022 -3.38552856 6.64033508 C-3.36012727 0.19834085 -3.36012727 0.19834085 0 0 Z " fill="#000000" transform="translate(412.25,17.8671875)"/>
<path d="M0 0 C0.9075 0.00257812 1.815 0.00515625 2.75 0.0078125 C4.11125 0.00394531 4.11125 0.00394531 5.5 0 C7.75 0.1328125 7.75 0.1328125 8.75 1.1328125 C8.83438361 2.48089208 8.8582027 3.8328785 8.85546875 5.18359375 C8.70908049 16.5217715 8.70908049 16.5217715 12.8125 26.8203125 C18.1473055 35.61380769 16.63980518 48.19405292 15.75 58.1328125 C15.42 58.7928125 15.09 59.4528125 14.75 60.1328125 C12.12472811 60.18663356 9.50055287 60.22639563 6.875 60.2578125 C6.12863281 60.27457031 5.38226563 60.29132813 4.61328125 60.30859375 C2.65805539 60.3262084 0.70257979 60.23601439 -1.25 60.1328125 C-3.25 58.1328125 -3.25 58.1328125 -3.49723816 55.73509216 C-3.49581314 54.72995071 -3.49438812 53.72480927 -3.49291992 52.68920898 C-3.49599655 51.55140488 -3.49907318 50.41360077 -3.50224304 49.24131775 C-3.49505753 48.00797195 -3.48787201 46.77462616 -3.48046875 45.50390625 C-3.48001053 44.24393326 -3.47955231 42.98396027 -3.4790802 41.68580627 C-3.47605464 39.01834725 -3.46922585 36.3512318 -3.45581055 33.68383789 C-3.43880341 30.25817222 -3.43499669 26.8326539 -3.43575573 23.40695095 C-3.4354191 20.14758805 -3.42658533 16.88825627 -3.41796875 13.62890625 C-3.41685593 12.39353622 -3.4157431 11.1581662 -3.41459656 9.88536072 C-3.40821671 8.75070877 -3.40183685 7.61605682 -3.39526367 6.44702148 C-3.39145187 5.44267563 -3.38764008 4.43832977 -3.38371277 3.40354919 C-3.20398894 0.35144351 -3.05127909 0.18011022 0 0 Z " fill="#000000" transform="translate(115.25,44.8671875)"/>
<path d="M0 0 C20.46 0 40.92 0 62 0 C62 2.97 62 5.94 62 9 C41.54 9 21.08 9 0 9 C0 6.03 0 3.06 0 0 Z " fill="#000000" transform="translate(343,125)"/>
<path d="M0 0 C2.4375 1.5625 2.4375 1.5625 4 4 C4 7.81153499 3.80074051 10.05097421 1.3125 13 C-1.89970645 14.38906225 -3.6936636 14.05521374 -7 13 C-8.9375 11.375 -8.9375 11.375 -10 9 C-9.875 5.375 -9.875 5.375 -9 2 C-5.50875983 -0.32749345 -4.10777749 -0.50299316 0 0 Z " fill="#000000" transform="translate(121,24)"/>
</svg>
